# xmcd
#
# Track frame offsets:
#	150
#	28400
#	49807
#	67087
#	82762
#	100767
#	119442
#	147597
#	164662
#	183500
#	197887
#	209520
#	223415
#	252120
#	270052
#	285877
#	307097
#	330640
#
# Disc length: 4615 seconds
# Revision: 0
# Processed by: cddbd v1.5.2PL0 Copyright (c) Steve Scherf et al.
# Submitted via: dBpowerAMP V12.0
#
DISCID=19120512
DTITLE=Various Artist - Greatest Hits of the Millennium: 80's volume 2
DYEAR=1999
DGENRE=Pop
TTITLE0=Billy Joel - Goodnight Saigon
TTITLE1=Nits - Nescio
TTITLE2=Time Bandits - I'm Specialized in You
TTITLE3=Dolly Dots - Love Me Just a Little Bit More
TTITLE4=Stars on 45 - Proudly presents Star Sisters
TTITLE5=Indeep - Last Night a DJ Saved My Live
TTITLE6=Grandmaster Flash and the Furious Five - The Message
TTITLE7=Irene Cara - Fame
TTITLE8=Jimmy Cliff - Reggae Night
TTITLE9=Bow Wow Wow - Do You Wanna Hold Me
TTITLE10=Tracey Ullman - Breakaway
TTITLE11=Electric Light Orchestra - Rock 'n' Roll Is King
TTITLE12=New Order - Blue Monday
TTITLE13=Kids from "Fame" - Starmaker
TTITLE14=Doe Maar - Pa
TTITLE15=Carlos Santana and Willie Nelson - They All Went to Mexico
TTITLE16=Dolly Parton - You Are
TTITLE17=Dionne Warwick - All the Love in the World
EXTD=
EXTT0=
EXTT1=
EXTT2=
EXTT3=
EXTT4=
EXTT5=
EXTT6=
EXTT7=
EXTT8=
EXTT9=
EXTT10=
EXTT11=
EXTT12=
EXTT13=
EXTT14=
EXTT15=
EXTT16=
EXTT17=
PLAYORDER=
